<svg xmlns="http://www.w3.org/2000/svg" width="512" height="512" viewBox="0 0 512 512" fill="none">
  <rect width="512" height="512" rx="108" fill="#0A0E17"/>
  <rect x="34" y="34" width="444" height="444" rx="92" stroke="#4CC9F0" stroke-opacity="0.35" stroke-width="10"/>
  <path d="M124 319C124 383 171 421 247 421C317 421 363 385 363 328C363 276 335 245 263 226L228 217C196 209 182 197 182 178C182 156 203 139 236 139C271 139 293 155 296 183H355C352 121 306 87 236 87C168 87 124 124 124 182C124 231 152 261 217 277L256 287C293 296 305 307 305 328C305 351 281 364 248 364C211 364 185 345 183 319H124Z" fill="#4CC9F0"/>
  <path d="M399 149L414 180L449 186L424 211L430 247L399 231L368 247L374 211L349 186L384 180L399 149Z" fill="#FFD166"/>
</svg>